<?xml version="1.0" encoding="UTF-8"?>
<!DOCTYPE svg PUBLIC "-//W3C//DTD SVG 1.1//EN" "http://www.w3.org/Graphics/SVG/1.1/DTD/svg11.dtd">
<!-- Creator: CorelDRAW 2020 (64-Bit) -->
<svg xmlns="http://www.w3.org/2000/svg" xml:space="preserve" height="100"
      width="100" version="1.1" style="shape-rendering:geometricPrecision; text-rendering:geometricPrecision; image-rendering:optimizeQuality; fill-rule:evenodd; clip-rule:evenodd"
viewBox="0 0 87.85 80.13"
 xmlns:xlink="http://www.w3.org/1999/xlink"
 xmlns:xodm="http://www.corel.com/coreldraw/odm/2003">
 <defs>
  <style type="text/css">
   <![CDATA[
    .fil3 {fill:#1C1A3F}
    .fil7 {fill:#1D1B40}
    .fil4 {fill:#1D1B43}
    .fil21 {fill:#1F1B3F}
    .fil15 {fill:#21174D}
    .fil20 {fill:#2A1B4F}
    .fil6 {fill:#321660}
    .fil9 {fill:#3D156B}
    .fil17 {fill:#3D1669}
    .fil8 {fill:#C71E7F}
    .fil16 {fill:#C92083}
    .fil23 {fill:#CC1F8B}
    .fil10 {fill:#D11E8C}
    .fil13 {fill:#EE2195}
    .fil0 {fill:#FF35B6}
    .fil12 {fill:url(#id0)}
    .fil22 {fill:url(#id1)}
    .fil11 {fill:url(#id2)}
    .fil1 {fill:url(#id3)}
    .fil5 {fill:url(#id4)}
    .fil24 {fill:url(#id5)}
    .fil2 {fill:url(#id6)}
    .fil25 {fill:url(#id7)}
    .fil14 {fill:url(#id8)}
    .fil19 {fill:url(#id9)}
    .fil18 {fill:url(#id10)}
   ]]>
  </style>
  <linearGradient id="id0" gradientUnits="userSpaceOnUse" x1="15.41" y1="51.13" x2="15.41" y2="41.95">
   <stop offset="0" style="stop-opacity:1; stop-color:#1D1B43"/>
   <stop offset="1" style="stop-opacity:1; stop-color:#5C1574"/>
  </linearGradient>
  <linearGradient id="id1" gradientUnits="userSpaceOnUse" x1="58.9" y1="61.4" x2="58.9" y2="51.96">
   <stop offset="0" style="stop-opacity:1; stop-color:#211A46"/>
   <stop offset="0.631373" style="stop-opacity:1; stop-color:#291853"/>
   <stop offset="1" style="stop-opacity:1; stop-color:#321660"/>
  </linearGradient>
  <linearGradient id="id2" gradientUnits="userSpaceOnUse" x1="15.41" y1="45.9" x2="15.41" y2="31.3">
   <stop offset="0" style="stop-opacity:1; stop-color:#541472"/>
   <stop offset="1" style="stop-opacity:1; stop-color:#D11E8C"/>
  </linearGradient>
  <linearGradient id="id3" gradientUnits="userSpaceOnUse" x1="43.78" y1="35.68" x2="43.78" y2="17.64">
   <stop offset="0" style="stop-opacity:1; stop-color:#6B1673"/>
   <stop offset="0.701961" style="stop-opacity:1; stop-color:#9C1B80"/>
   <stop offset="1" style="stop-opacity:1; stop-color:#CE218E"/>
  </linearGradient>
  <linearGradient id="id4" gradientUnits="userSpaceOnUse" x1="33.7" y1="48.16" x2="54.08" y2="20.1">
   <stop offset="0" style="stop-opacity:1; stop-color:#23194E"/>
   <stop offset="0.501961" style="stop-opacity:1; stop-color:#3B136B"/>
   <stop offset="1" style="stop-opacity:1; stop-color:#681B79"/>
  </linearGradient>
  <linearGradient id="id5" gradientUnits="userSpaceOnUse" x1="72.26" y1="45.8" x2="72.26" y2="30.52">
   <stop offset="0" style="stop-opacity:1; stop-color:#541670"/>
   <stop offset="0.639216" style="stop-opacity:1; stop-color:#901A7D"/>
   <stop offset="1" style="stop-opacity:1; stop-color:#CC1F8B"/>
  </linearGradient>
  <linearGradient id="id6" gradientUnits="userSpaceOnUse" x1="43.78" y1="80.13" x2="43.78" y2="52.56">
   <stop offset="0" style="stop-opacity:1; stop-color:#1B1B3F"/>
   <stop offset="0.8" style="stop-opacity:1; stop-color:#221B47"/>
   <stop offset="1" style="stop-opacity:1; stop-color:#2A1B4F"/>
  </linearGradient>
  <linearGradient id="id7" gradientUnits="userSpaceOnUse" x1="72.26" y1="51.6" x2="72.26" y2="41.29">
   <stop offset="0" style="stop-opacity:1; stop-color:#2B145A"/>
   <stop offset="0.580392" style="stop-opacity:1; stop-color:#411565"/>
   <stop offset="1" style="stop-opacity:1; stop-color:#581671"/>
  </linearGradient>
  <linearGradient id="id8" gradientUnits="userSpaceOnUse" x1="28.88" y1="42.24" x2="28.88" y2="19.74">
   <stop offset="0" style="stop-opacity:1; stop-color:#631875"/>
   <stop offset="0.568627" style="stop-opacity:1; stop-color:#A81C85"/>
   <stop offset="1" style="stop-opacity:1; stop-color:#EE2195"/>
  </linearGradient>
  <linearGradient id="id9" gradientUnits="userSpaceOnUse" x1="43.78" y1="24.49" x2="43.78" y2="7.61">
   <stop offset="0" style="stop-opacity:1; stop-color:#BD1F89"/>
   <stop offset="0.709804" style="stop-opacity:1; stop-color:#DE2A9F"/>
   <stop offset="1" style="stop-opacity:1; stop-color:#FF35B6"/>
  </linearGradient>
  <linearGradient id="id10" gradientUnits="userSpaceOnUse" x1="58.9" y1="13.74" x2="58.9" y2="22.8">
   <stop offset="0" style="stop-opacity:1; stop-color:#F02399"/>
   <stop offset="1" style="stop-opacity:1; stop-color:#681B79"/>
  </linearGradient>
 </defs>
 <g id="Слой_x0020_2">
  <metadata id="CorelCorpID_0Corel-Layer"/>
  <g id="_2000235987088">
   <path class="fil0" d="M49.82 8l0 -1.96c0,-3.32 -2.72,-6.04 -6.04,-6.04l0 0c-3.32,0 -6.04,2.72 -6.04,6.04l0 8.42c0,0 2.63,-2.46 6.29,-3.07 3.66,-0.61 5.79,-3.39 5.79,-3.39z"/>
   <path class="fil1" d="M37.74 35.68l12.08 -0.04 0 -13.91 0 -3.43 0 -0.66c0,0 -2.13,2.78 -5.79,3.39 -3.66,0.61 -6.29,3.07 -6.29,3.07l0 0.16 0 11.42z"/>
   <path class="fil2" d="M49.82 52.56l0 21.45c0,3.37 -2.72,6.12 -6.04,6.12l0 0c-3.32,0 -6.04,-2.75 -6.04,-6.12l0 -14.89c0,0 2.63,-2.5 6.29,-3.12 3.66,-0.61 5.79,-3.44 5.79,-3.44z"/>
   <path class="fil3" d="M28.88 13.79l0 0c2.17,0 3.95,1.78 3.95,3.95l0 45.57c0,2.17 -1.78,3.95 -3.95,3.95l0 0c-2.17,0 -3.95,-1.78 -3.95,-3.95l0 -45.57c0,-2.17 1.78,-3.95 3.95,-3.95z"/>
   <path class="fil4" d="M15.41 24.24l0 0c2.17,0 3.95,1.78 3.95,3.95l0 27.53c0,2.17 -1.78,3.94 -3.95,3.94l0 0c-2.17,0 -3.95,-1.77 -3.95,-3.94l0 -27.53c0,-2.17 1.78,-3.95 3.95,-3.95z"/>
   <path class="fil5" d="M32.83 48.28c0,0 0.72,-8.54 11.11,-9.41 10.4,-0.87 18.91,-4.23 18.91,-12.27l0 -7.8 0 -1.06 0 -0.02c0,0.37 -0.05,0.73 -0.15,1.07l-0.03 0.08 0 0 -0.01 0.04 -0.02 0.04 -0.01 0.04 -0.02 0.05 -0.01 0.04 -0.02 0.04 -0.01 0.04 0 0.01 -0.03 0.07 -0.01 0 -0.03 0.07 0 0 -0.02 0.05 -0.02 0.04 -0.02 0.03 -0.02 0.05 -0.01 0.03 -0.03 0.06 -0.01 0.01 -0.01 0.01 -0.04 0.07 -0.02 0.04 -0.02 0.04 -0.02 0.03 -0.03 0.04 -0.02 0.04 -0.03 0.04 -0.02 0.03 -0.03 0.04 -0.02 0.03 0 0 -0.05 0.06 0 0.01 -0.02 0.02 -0.03 0.04 -0.03 0.04 -0.02 0.03 -0.03 0.03 -0.03 0.04 -0.03 0.03 -0.05 0.06 0 0 -0.01 0.01c-0.02,0.02 -0.04,0.04 -0.06,0.06l-0.01 0.01 -0.05 0.05 -0.02 0.02 -0.04 0.04 -0.02 0.02 -0.05 0.04 -0.02 0.03 -0.01 0 -0.05 0.05 0 0 -0.06 0.05 -0.02 0.01 -0.01 0.01 -0.05 0.04 -0.03 0.02 -0.03 0.03 -0.04 0.03 -0.03 0.02 -0.04 0.03 0 0 -0.07 0.05 0 0 -0.06 0.04 -0.01 0 -0.03 0.03 -0.04 0.02 -0.04 0.02 -0.04 0.02 -0.04 0.03 -0.04 0.02 -0.03 0.02 -0.07 0.04 -0.01 0 -0.07 0.03 0 0.01 -0.05 0.02 -0.03 0.01 -0.04 0.02 -0.04 0.02 -0.04 0.02 -0.07 0.03 -0.01 0 -0.08 0.03 -0.03 0.01 -0.06 0.02 -0.03 0.01 -0.05 0.02 -0.04 0.01 -0.05 0.01 -0.04 0.01 -0.05 0.02 -0.03 0.01 0 0 -0.08 0.02 -0.01 0 -0.02 0 -0.07 0.02 -0.02 0 -0.06 0.02 -0.04 0 -0.06 0.01 -0.03 0.01 -0.07 0.01 -0.02 0 0 0 -0.08 0.01 -0.01 0 -0.03 0 -0.06 0.01 -0.04 0 -0.05 0 -0.04 0.01 -0.06 0 -0.03 0c-0.03,0 -0.06,0 -0.1,0l0 0c-0.03,0 -0.06,0 -0.1,0l0 0c-0.03,0 -0.06,0 -0.09,-0.01l-0.04 0 -0.05 0 -0.05 0 -0.05 -0.01 -0.05 0 -0.04 -0.01 -0.05 -0.01 -0.06 0 -0.03 -0.01 -0.06 -0.01 -0.04 0 -0.06 -0.02 -0.03 0 -0.06 -0.02 -0.03 0 -0.05 -0.01 -0.05 -0.02 0 0 -0.08 -0.02 -0.01 0 -0.08 -0.03 0 0c-0.03,-0.01 -0.06,-0.02 -0.09,-0.03l0 0 -0.08 -0.02 -0.01 -0.01 -0.03 -0.01 -0.06 -0.02 -0.02 -0.01 -0.07 -0.03 -0.03 -0.01 -0.05 -0.02 -0.04 -0.02 -0.03 -0.02 -0.05 -0.02 -0.05 -0.02 -0.03 -0.02 -0.05 -0.02 -0.03 -0.02 -0.05 -0.03 -0.03 -0.02 -0.04 -0.02 -0.04 -0.03 -0.01 0 -0.06 -0.04 -0.01 0 -0.04 -0.03 -0.03 -0.02 -0.01 0 -0.07 -0.05 0 -0.01 -0.07 -0.05 0 0 -0.04 -0.03 -0.04 -0.02 -0.02 -0.03 -0.05 -0.03 -0.02 -0.02 -0.05 -0.04 -0.03 -0.03 -0.04 -0.03 -0.02 -0.02 -0.05 -0.05 -0.02 -0.01 -0.05 -0.05 -0.01 -0.02 -0.05 -0.04 -0.02 -0.03 -0.04 -0.04 -0.02 -0.02 -0.05 -0.06 -0.01 -0.01 -0.05 -0.06 -0.01 -0.01 -0.01 -0.01c-0.01,-0.02 -0.03,-0.04 -0.05,-0.06l0 0c-0.02,-0.03 -0.04,-0.05 -0.05,-0.07l-0.01 -0.01 -0.01 -0.01 -0.04 -0.06 -0.02 -0.03 -0.04 -0.05 -0.01 -0.02 -0.03 -0.05 -0.02 -0.03 -0.04 -0.06 -0.01 -0.01 -0.03 -0.06 -0.02 -0.03 -0.03 -0.05 -0.01 -0.02 -0.04 -0.07 -0.01 -0.02 -0.03 -0.07 -0.01 -0.01 -0.03 -0.07 -0.01 -0.01c-0.01,-0.03 -0.02,-0.06 -0.04,-0.09l0 0c-0.01,-0.03 -0.02,-0.06 -0.03,-0.09l0 0c-0.04,-0.09 -0.07,-0.18 -0.1,-0.27l0 -0.01 -0.03 -0.08 0 -0.02 -0.02 -0.07 -0.01 -0.02 -0.02 -0.07 0 -0.02 -0.02 -0.07 0 -0.03 -0.02 -0.07 0 -0.02 -0.01 -0.08 -0.01 -0.01c-0.03,-0.19 -0.04,-0.39 -0.04,-0.59l0 0.02 0 5.97c0,1.46 -1.67,4.42 -10.55,4.77 -8.89,0.35 -11.58,2.84 -11.58,2.84 -6.21,4.18 -7.9,10.92 -7.9,10.92l0 1.94 0.05 0.01c-0.03,0.2 -0.05,0.4 -0.05,0.61l0 1.8c0,2.17 1.78,3.95 3.95,3.95l0 0c1.95,0 3.58,-1.43 3.89,-3.29l0.06 1.02z"/>
   <path class="fil6" d="M62.85 42.15l0 21.16c0,2.17 -1.77,3.95 -3.95,3.95l0 0c-2.17,0 -3.94,-1.78 -3.94,-3.95l0 -16.24c3.24,-0.81 5.87,-2.23 7.89,-4.92z"/>
   <path class="fil7" d="M72.26 23.98l0 0c2.17,0 3.95,1.78 3.95,3.95l0 27.53c0,2.17 -1.78,3.94 -3.95,3.94l0 0c-2.17,0 -3.95,-1.77 -3.95,-3.94l0 -27.53c0,-2.17 1.78,-3.95 3.95,-3.95z"/>
   <path class="fil8" d="M70.59 12.92c1.29,0 2.34,1.05 2.34,2.34 0,1.29 -1.05,2.33 -2.34,2.33 -1.29,0 -2.34,-1.04 -2.34,-2.33 0,-1.29 1.05,-2.34 2.34,-2.34z"/>
   <path class="fil9" d="M84.76 38.24c1.71,0 3.09,1.38 3.09,3.09 0,1.71 -1.38,3.09 -3.09,3.09 -1.71,0 -3.09,-1.38 -3.09,-3.09 0,-1.71 1.38,-3.09 3.09,-3.09z"/>
   <path class="fil10" d="M15.41 24.24l0 0c2.17,0 3.95,1.78 3.95,3.95l0 3.26c0,2.17 -1.78,3.94 -3.95,3.94l0 0c-2.17,0 -3.95,-1.77 -3.95,-3.94l0 -3.26c0,-2.17 1.78,-3.95 3.95,-3.95z"/>
   <path class="fil11" d="M19.36 31.3l0 10.65c0,2.17 -1.78,3.95 -3.95,3.95l0 0c-2.17,0 -3.95,-1.78 -3.95,-3.95l0 -10.65c0,2.17 1.78,3.94 3.95,3.94l0 0c2.17,0 3.95,-1.77 3.95,-3.94z"/>
   <path class="fil12" d="M19.36 41.95l0 5.23c0,2.17 -1.78,3.95 -3.95,3.95l0 0c-2.17,0 -3.95,-1.78 -3.95,-3.95l0 -5.23c0,2.17 1.78,3.95 3.95,3.95l0 0c2.17,0 3.95,-1.78 3.95,-3.95z"/>
   <path class="fil13" d="M28.88 13.79l0 0c2.17,0 3.95,1.78 3.95,3.95l0 2.42c0,2.17 -1.78,3.95 -3.95,3.95l0 0c-2.17,0 -3.95,-1.78 -3.95,-3.95l0 -2.42c0,-2.17 1.78,-3.95 3.95,-3.95z"/>
   <path class="fil14" d="M32.83 31.28l0 -11.54c0,2.18 -1.78,3.97 -3.95,3.97l0 0c-2.17,0 -3.95,-1.79 -3.95,-3.97l0 22.5c0,0 1.69,-6.76 7.9,-10.96z"/>
   <path class="fil15" d="M32.77 47.26c0.04,0.22 0.06,0.44 0.06,0.67l0 3.83c0,2.18 -1.78,3.95 -3.95,3.95l0 0c-2.17,0 -3.95,-1.77 -3.95,-3.95l0 -3.83c0,-0.23 0.02,-0.45 0.06,-0.67 0.32,1.86 1.95,3.29 3.89,3.29l0 0c1.95,0 3.58,-1.43 3.89,-3.29z"/>
   <path class="fil16" d="M16.94 12.63c1.29,0 2.33,1.05 2.33,2.34 0,1.29 -1.04,2.33 -2.33,2.33 -1.3,0 -2.34,-1.04 -2.34,-2.33 0,-1.29 1.04,-2.34 2.34,-2.34z"/>
   <path class="fil17" d="M3.09 38.24c1.71,0 3.09,1.38 3.09,3.09 0,1.71 -1.38,3.09 -3.09,3.09 -1.71,0 -3.09,-1.38 -3.09,-3.09 0,-1.71 1.38,-3.09 3.09,-3.09z"/>
   <path class="fil18" d="M58.9 13.74l0 0c2.18,0 3.95,1.78 3.95,3.95l0 1.16c0,2.17 -1.77,3.95 -3.95,3.95l0 0c-2.17,0 -3.94,-1.78 -3.94,-3.95l0 -1.16c0,-2.17 1.77,-3.95 3.94,-3.95z"/>
   <path class="fil19" d="M49.82 17.71c0,0 -2.13,2.92 -5.79,3.56 -3.66,0.64 -6.29,3.22 -6.29,3.22l0 -10.1c0,0 2.63,-2.58 6.29,-3.22 3.66,-0.64 5.79,-3.56 5.79,-3.56l0 10.1z"/>
   <path class="fil20" d="M49.82 52.98c0,0 -2.13,2.81 -5.79,3.43 -3.66,0.61 -6.29,3.09 -6.29,3.09l0 -4.74c1.51,-3.32 4.11,-6.41 8.57,-6.65 1.22,-0.07 2.39,-0.14 3.51,-0.24l0 5.11z"/>
   <path class="fil21" d="M62.85 57.45l0 5.86c0,2.17 -1.77,3.95 -3.95,3.95l0 0c-2.17,0 -3.94,-1.78 -3.94,-3.95l0 -5.86c0,2.17 1.77,3.95 3.94,3.95l0 0c2.18,0 3.95,-1.78 3.95,-3.95z"/>
   <path class="fil22" d="M62.85 51.96l0 5.49c0,2.17 -1.77,3.95 -3.95,3.95l0 0c-2.17,0 -3.94,-1.78 -3.94,-3.95l0 -5.49c0,2.17 1.77,3.95 3.94,3.95l0 0c2.18,0 3.95,-1.78 3.95,-3.95z"/>
   <path class="fil23" d="M72.26 23.98l0 0c2.17,0 3.95,1.78 3.95,3.95l0 3.06c0,2.17 -1.78,3.95 -3.95,3.95l0 0c-2.17,0 -3.95,-1.78 -3.95,-3.95l0 -3.06c0,-2.17 1.78,-3.95 3.95,-3.95z"/>
   <path class="fil24" d="M76.21 30.52l0 11.2c0,2.24 -1.78,4.08 -3.95,4.08l0 0c-2.17,0 -3.95,-1.84 -3.95,-4.08l0 -11.2c0,2.24 1.78,4.08 3.95,4.08l0 0c2.17,0 3.95,-1.84 3.95,-4.08z"/>
   <path class="fil25" d="M76.21 41.29l0 6.14c0,2.3 -1.78,4.17 -3.95,4.17l0 0c-2.17,0 -3.95,-1.87 -3.95,-4.17l0 -6.14c0,2.3 1.78,4.18 3.95,4.18l0 0c2.17,0 3.95,-1.88 3.95,-4.18z"/>
  </g>
 </g>
</svg>
